<?xml version="1.0" encoding="UTF-8"?>
<svg version="1.1" xmlns="http://www.w3.org/2000/svg" width="3840" height="2160">
<path d="M0 0 C0.69693089 0.00026688 1.39386177 0.00053375 2.11191177 0.00080872 C26.1212306 0.01230121 50.04751886 0.42836082 74 2.1875 C74.87005676 2.25066406 75.74011353 2.31382813 76.63653564 2.37890625 C164.66223427 8.83674897 251.34511516 25.93303952 468 108.1875 C469.26516637 108.80740065 470.53047231 109.4270165 471.79589844 110.04638672 C488.27263833 118.11872564 504.50819083 126.4464836 520.37792969 135.67138672 C522.96290601 137.1660518 525.56043019 138.63576859 528.1640625 140.09765625 C550.74608497 152.80084748 572.57129756 166.63230592 594 181.1875 C594.75990234 181.70151367 595.51980469 182.21552734 596.30273438 182.74511719 C627.22648447 203.67921345 656.86571286 226.5251828 685.29101562 250.73291016 C686.44238858 251.71289302 687.59475354 252.69171145 688.74804688 253.66943359 C695.99551407 259.81376421 703.12575717 266.05077576 710.0859375 272.51953125 C712.34000703 274.5832437 714.61379681 276.60671652 716.91796875 278.61328125 C730.21227456 290.21220368 742.64541065 302.72848579 755.125 315.1875 C755.85500214 315.91491394 756.58500427 316.64232788 757.33712769 317.39178467 C759.45950366 319.5082328 761.5780332 321.62845437 763.6953125 323.75 C764.32712936 324.37983795 764.95894623 325.0096759 765.60990906 325.65859985 C769.38702832 329.45508863 772.9686738 333.37278983 776.4704895 337.42440796 C778.14845742 339.35862932 779.8779457 341.23227565 781.6484375 343.08203125 C782.5607312 344.041698 782.5607312 344.041698 783.49145508 345.02075195 C784.1130249 345.67390381 784.73459473 346.32705566 785.375 347 C790.45735538 352.376515 795.28394154 357.8262559 799.89453125 363.61328125 C802.17200846 366.39780348 804.56312008 369.04163803 807 371.6875 C811.89379479 377.01730108 816.46020517 382.55585578 821 388.1875 C822.00934094 389.41755016 823.01982598 390.6466621 824.03125 391.875 C831.053054 400.42121193 837.80044222 409.12775447 844.3828125 418.015625 C846.1077492 420.33220666 847.84894851 422.63584697 849.59375 424.9375 C886.90708676 474.21752449 918.96257452 527.14316368 947 582.1875 C947.59071289 583.34403076 947.59071289 583.34403076 948.19335938 584.52392578 C950.50438207 589.05816965 952.76250235 593.61659736 955 598.1875 C955.4242627 599.04859375 955.84852539 599.9096875 956.28564453 600.796875 C975.76134987 640.41123083 991.80081052 681.41627887 1006 723.1875 C1006.32777435 724.1492514 1006.32777435 724.1492514 1006.66217041 725.13043213 C1036.5492286 812.97549913 1053.54344066 905.61654703 1059 1002.1875 C1059.04236786 1003.02087891 1059.08473572 1003.85425781 1059.12838745 1004.71289062 C1060.00447657 1022.5367862 1060.20290561 1040.34460649 1060.1875 1058.1875 C1060.18723312 1058.88443089 1060.18696625 1059.58136177 1060.18669128 1060.29941177 C1060.17519879 1084.3087306 1059.75913918 1108.23501886 1058 1132.1875 C1057.93683594 1133.05755676 1057.87367188 1133.92761353 1057.80859375 1134.82403564 C1051.35075103 1222.84973427 1034.25446048 1309.53261516 952 1526.1875 C951.65098633 1526.90067383 951.30197266 1527.61384766 950.94238281 1528.34863281 C948.67171021 1532.98411106 946.34436605 1537.58893583 944 1542.1875 C943.27006836 1543.62851074 943.27006836 1543.62851074 942.52539062 1545.09863281 C934.77084888 1560.3807315 926.63362935 1575.34405178 917.85791016 1590.06298828 C915.87509263 1593.39756105 913.9107265 1596.74271937 911.94921875 1600.08984375 C904.58128801 1612.64489521 897.06758736 1625.06716614 889 1637.1875 C888.16375871 1638.45422659 887.32782091 1639.72115358 886.4921875 1640.98828125 C863.6519177 1675.5279888 838.92725597 1708.82063377 812.0793457 1740.35620117 C809.22491203 1743.71508859 806.44076506 1747.11964165 803.6875 1750.5625 C799.402493 1755.83576087 794.80695987 1760.78131939 790.13549805 1765.71044922 C786.56590739 1769.47979799 783.10903335 1773.32463433 779.70263672 1777.24194336 C768.71459485 1789.79767976 756.78168134 1801.51136208 745 1813.3125 C744.27258606 1814.04250214 743.54517212 1814.77250427 742.79571533 1815.52462769 C740.6792672 1817.64700366 738.55904563 1819.7655332 736.4375 1821.8828125 C735.49274307 1822.8305378 735.49274307 1822.8305378 734.52890015 1823.79740906 C730.73241137 1827.57452832 726.81471017 1831.1561738 722.76309204 1834.6579895 C720.82887068 1836.33595742 718.95522435 1838.0654457 717.10546875 1839.8359375 C716.46569092 1840.4441333 715.82591309 1841.0523291 715.16674805 1841.67895508 C714.51359619 1842.3005249 713.86044434 1842.92209473 713.1875 1843.5625 C707.810985 1848.64485538 702.3612441 1853.47144154 696.57421875 1858.08203125 C693.78969652 1860.35950846 691.14586197 1862.75062008 688.5 1865.1875 C683.17019892 1870.08129479 677.63164422 1874.64770517 672 1879.1875 C670.76994984 1880.19684094 669.5408379 1881.20732598 668.3125 1882.21875 C659.76628807 1889.240554 651.05974553 1895.98794222 642.171875 1902.5703125 C639.85529334 1904.2952492 637.55165303 1906.03644851 635.25 1907.78125 C585.96997551 1945.09458676 533.04433632 1977.15007452 478 2005.1875 C477.22897949 2005.58130859 476.45795898 2005.97511719 475.66357422 2006.38085938 C471.12933035 2008.69188207 466.57090264 2010.95000235 462 2013.1875 C461.13890625 2013.6117627 460.2778125 2014.03602539 459.390625 2014.47314453 C419.77626917 2033.94884987 378.77122113 2049.98831052 337 2064.1875 C336.3588324 2064.40601624 335.71766479 2064.62453247 335.05706787 2064.84967041 C248.29264186 2094.36906788 156.98573378 2111.13176041 58 2117.1875 C57.15846375 2117.22986786 56.31692749 2117.27223572 55.44989014 2117.31588745 C37.63388497 2118.18816945 19.8349249 2118.39039873 2 2118.375 C1.30306911 2118.37473312 0.60613823 2118.37446625 -0.11191177 2118.37419128 C-24.1212306 2118.36269879 -48.04751886 2117.94663918 -72 2116.1875 C-72.87005676 2116.12433594 -73.74011353 2116.06117188 -74.63653564 2115.99609375 C-162.66223427 2109.53825103 -249.34511516 2092.44196048 -466 2010.1875 C-467.26516637 2009.56759935 -468.53047231 2008.9479835 -469.79589844 2008.32861328 C-486.27263833 2000.25627436 -502.50819083 1991.9285164 -518.37792969 1982.70361328 C-520.96290601 1981.2089482 -523.56043019 1979.73923141 -526.1640625 1978.27734375 C-548.74608497 1965.57415252 -570.57129756 1951.74269408 -592 1937.1875 C-592.75990234 1936.67348633 -593.51980469 1936.15947266 -594.30273438 1935.62988281 C-625.22648447 1914.69578655 -654.86571286 1891.8498172 -683.29101562 1867.64208984 C-684.44238858 1866.66210698 -685.59475354 1865.68328855 -686.74804688 1864.70556641 C-693.99551407 1858.56123579 -701.12575717 1852.32422424 -708.0859375 1845.85546875 C-710.34000703 1843.7917563 -712.61379681 1841.76828348 -714.91796875 1839.76171875 C-728.21227456 1828.16279632 -740.64541065 1815.64651421 -753.125 1803.1875 C-753.85500214 1802.46008606 -754.58500427 1801.73267212 -755.33712769 1800.98321533 C-757.45950366 1798.8667672 -759.5780332 1796.74654563 -761.6953125 1794.625 C-762.6430378 1793.68024307 -762.6430378 1793.68024307 -763.60990906 1792.71640015 C-767.38702832 1788.91991137 -770.9686738 1785.00221017 -774.4704895 1780.95059204 C-776.14845742 1779.01637068 -777.8779457 1777.14272435 -779.6484375 1775.29296875 C-780.2566333 1774.65319092 -780.8648291 1774.01341309 -781.49145508 1773.35424805 C-782.1130249 1772.70109619 -782.73459473 1772.04794434 -783.375 1771.375 C-788.45735538 1765.998485 -793.28394154 1760.5487441 -797.89453125 1754.76171875 C-800.17200846 1751.97719652 -802.56312008 1749.33336197 -805 1746.6875 C-809.89379479 1741.35769892 -814.46020517 1735.81914422 -819 1730.1875 C-820.00934094 1728.95744984 -821.01982598 1727.7283379 -822.03125 1726.5 C-829.053054 1717.95378807 -835.80044222 1709.24724553 -842.3828125 1700.359375 C-844.1077492 1698.04279334 -845.84894851 1695.73915303 -847.59375 1693.4375 C-884.90708676 1644.15747551 -916.96257452 1591.23183632 -945 1536.1875 C-945.39380859 1535.41647949 -945.78761719 1534.64545898 -946.19335938 1533.85107422 C-948.50438207 1529.31683035 -950.76250235 1524.75840264 -953 1520.1875 C-953.4242627 1519.32640625 -953.84852539 1518.4653125 -954.28564453 1517.578125 C-973.76134987 1477.96376917 -989.80081052 1436.95872113 -1004 1395.1875 C-1004.32777435 1394.2257486 -1004.32777435 1394.2257486 -1004.66217041 1393.24456787 C-1034.5492286 1305.39950087 -1051.54344066 1212.75845297 -1057 1116.1875 C-1057.04236786 1115.35412109 -1057.08473572 1114.52074219 -1057.12838745 1113.66210938 C-1058.00447657 1095.8382138 -1058.20290561 1078.03039351 -1058.1875 1060.1875 C-1058.18723312 1059.49056911 -1058.18696625 1058.79363823 -1058.18669128 1058.07558823 C-1058.17519879 1034.0662694 -1057.75913918 1010.13998114 -1056 986.1875 C-1055.90525391 984.88241486 -1055.90525391 984.88241486 -1055.80859375 983.55096436 C-1049.35075103 895.52526573 -1032.25446048 808.84238484 -950 592.1875 C-949.38009935 590.92233363 -948.7604835 589.65702769 -948.14111328 588.39160156 C-940.06877436 571.91486167 -931.7410164 555.67930917 -922.51611328 539.80957031 C-921.0214482 537.22459399 -919.55173141 534.62706981 -918.08984375 532.0234375 C-905.38665252 509.44141503 -891.55519408 487.61620244 -877 466.1875 C-876.48598633 465.42759766 -875.97197266 464.66769531 -875.44238281 463.88476562 C-854.50828655 432.96101553 -831.6623172 403.32178714 -807.45458984 374.89648438 C-806.47460698 373.74511142 -805.49578855 372.59274646 -804.51806641 371.43945312 C-798.37373579 364.19198593 -792.13672424 357.06174283 -785.66796875 350.1015625 C-783.6042563 347.84749297 -781.58078348 345.57370319 -779.57421875 343.26953125 C-767.97529632 329.97522544 -755.45901421 317.54208935 -743 305.0625 C-742.27258606 304.33249786 -741.54517212 303.60249573 -740.79571533 302.85037231 C-738.6792672 300.72799634 -736.55904563 298.6094668 -734.4375 296.4921875 C-733.80766205 295.86037064 -733.1778241 295.22855377 -732.52890015 294.57759094 C-728.73241137 290.80047168 -724.81471017 287.2188262 -720.76309204 283.7170105 C-718.82887068 282.03904258 -716.95522435 280.3095543 -715.10546875 278.5390625 C-714.46569092 277.9308667 -713.82591309 277.3226709 -713.16674805 276.69604492 C-712.18702026 275.76369019 -712.18702026 275.76369019 -711.1875 274.8125 C-705.810985 269.73014462 -700.3612441 264.90355846 -694.57421875 260.29296875 C-691.78969652 258.01549154 -689.14586197 255.62437992 -686.5 253.1875 C-681.17019892 248.29370521 -675.63164422 243.72729483 -670 239.1875 C-668.76994984 238.17815906 -667.5408379 237.16767402 -666.3125 236.15625 C-657.76628807 229.134446 -649.05974553 222.38705778 -640.171875 215.8046875 C-637.85529334 214.0797508 -635.55165303 212.33855149 -633.25 210.59375 C-616.61236647 197.99668461 -599.5618479 186.05199701 -582.12646484 174.5859375 C-580.75560277 173.68441075 -579.38603435 172.78091225 -578.01806641 171.875 C-557.48682374 158.28761519 -536.30113459 145.62494271 -514.75830078 133.71289062 C-512.95496309 132.715612 -511.15375714 131.71446633 -509.35498047 130.70898438 C-436.25745305 89.88143993 -357.62063382 58.1834322 -56 1.1875 C-54.74993164 1.12394821 -54.74993164 1.12394821 -53.47460938 1.05911255 C-35.6507138 0.18302343 -17.84289351 -0.01540561 0 0 Z " fill="#BE32F5" transform="translate(1919,20.8125)"/>
<path d="M0 0 C79.53 0 159.06 0 241 0 C240.98428955 27.2254834 240.98428955 27.2254834 240.96826172 55.00097656 C240.96156163 67.12436923 240.95489558 79.24776186 240.94869995 91.37115479 C240.94810795 92.52665198 240.94810795 92.52665198 240.94750399 93.70549254 C240.93424333 119.65862103 240.92374639 145.61174988 240.91531372 171.56488037 C240.91503761 172.41249625 240.91476149 173.26011213 240.91447701 174.13341333 C240.90848995 192.55836277 240.90294976 210.98331232 240.89786934 229.40826203 C240.89537486 238.44502627 240.89278173 247.48179049 240.89013672 256.51855469 C240.88974444 257.86739029 240.88974444 257.86739029 240.88934424 259.24347509 C240.88083519 288.34285833 240.86582281 317.44223375 240.84740556 346.54161226 C240.82849985 376.46740262 240.81621974 406.39318868 240.81217002 436.31898491 C240.81159379 440.55449164 240.81094251 444.78999836 240.81024551 449.02550507 C240.81011067 449.85904011 240.80997582 450.69257516 240.80983689 451.55136884 C240.8074817 464.92056507 240.79822796 478.28974787 240.78633593 491.65893864 C240.7745037 505.12880027 240.77007839 518.5986487 240.77299725 532.06851533 C240.77450805 540.05218567 240.77055664 548.03580739 240.75840491 556.01946887 C240.7499142 562.01228776 240.75213489 568.00505594 240.75820221 573.99787971 C240.75903762 576.39944001 240.75658588 578.8010046 240.75023364 581.20255664 C240.58393578 648.04066071 254.60734627 712.51291245 302 762 C302.47163574 762.49886719 302.94327148 762.99773438 303.42919922 763.51171875 C320.23547851 781.22290776 341.1065931 795.92661666 363.375 805.9375 C364.32616699 806.36571045 365.27733398 806.7939209 366.25732422 807.23510742 C388.69284715 817.16616394 411.65408656 823.17766767 436 826 C437.12277344 826.13277344 438.24554687 826.26554687 439.40234375 826.40234375 C494.58275335 831.69560249 552.70931435 815.43861848 595.94628906 780.42382812 C598.28697554 778.46980013 600.60844849 776.49838008 602.89135742 774.47705078 C605.46158537 772.21163507 607.83113761 770.33980405 611 769 C611 768.34 611 767.68 611 767 C611.66 767 612.32 767 613 767 C613 766.34 613 765.68 613 765 C613.66 765 614.32 765 615 765 C615 764.34 615 763.68 615 763 C615.66 763 616.32 763 617 763 C617 762.34 617 761.68 617 761 C617.66 761 618.32 761 619 761 C619.26039063 760.41605469 619.52078125 759.83210938 619.7890625 759.23046875 C621.0806706 756.85140996 622.50126839 755.26133899 624.375 753.3125 C659.65074384 714.26634151 676.09323773 658.86866495 677.59837341 607.16954041 C677.63742591 605.87518096 677.67647841 604.58082151 677.71671432 603.24723905 C678.31163178 581.39941269 678.1345692 559.53069031 678.11761214 537.67708138 C678.11227088 530.52461812 678.1129531 523.37215813 678.11374746 516.21969336 C678.1150517 503.02711662 678.1117571 489.83454495 678.10573006 476.64196968 C678.0997884 463.60251401 678.09595917 450.56306045 678.09487724 437.52360344 C678.0948085 436.70917611 678.09473976 435.89474879 678.09466894 435.05564185 C678.09433055 430.91863312 678.09402919 426.78162438 678.09374207 422.64461564 C678.0916484 393.43421824 678.08493 364.22382359 678.07543945 335.01342773 C678.06623718 306.65730809 678.05916234 278.3011892 678.05493164 249.94506836 C678.05480011 249.06914674 678.05466859 248.19322512 678.05453308 247.29076042 C678.05321442 238.49342608 678.05193863 229.69609174 678.05069422 220.89875739 C678.04815883 202.98173483 678.04533758 185.06471231 678.04234314 167.14768982 C678.0421372 165.91232434 678.0421372 165.91232434 678.04192711 164.65200198 C678.03770875 139.43707346 678.0322802 114.22214541 678.02565002 89.00721741 C678.02546247 88.29212576 678.02527491 87.57703411 678.02508167 86.84027302 C678.01747095 57.89351513 678.00857392 28.94675761 678 0 C757.53 0 837.06 0 919 0 C919.06039235 74.22807654 919.06039235 74.22807654 919.07695007 97.21328735 C919.07783807 98.44289641 919.07783807 98.44289641 919.07874402 99.69734605 C919.09864242 127.32552192 919.11438469 154.95369855 919.12702942 182.58187866 C919.12744359 183.48450347 919.12785776 184.38712828 919.12828448 185.31710535 C919.13726592 204.93970315 919.14557608 224.56230118 919.15319599 244.18489955 C919.15693757 253.80962709 919.16082729 263.43435458 919.16479492 273.05908203 C919.1651872 274.01679188 919.16557948 274.97450173 919.16598364 275.96123309 C919.17873804 306.93079558 919.20124966 337.90034151 919.22889166 368.86989398 C919.2572762 400.7296879 919.27567636 432.58947268 919.28174497 464.44927903 C919.28260927 468.96267016 919.28358618 473.47606127 919.28463173 477.98945236 C919.284834 478.8776392 919.28503627 479.76582603 919.28524467 480.68092762 C919.28877192 494.90360245 919.3026373 509.12624878 919.3204961 523.34891205 C919.33828175 537.69271153 919.34487328 552.03648312 919.34050413 566.38029321 C919.33844147 574.13370153 919.34105032 581.88703373 919.35761642 589.64042664 C919.43997487 629.75238443 918.9827492 669.37403926 912 709 C911.78472656 710.23266602 911.56945313 711.46533203 911.34765625 712.73535156 C904.98474552 748.60311531 895.29281122 783.85823043 880 817 C879.58669434 817.91265625 879.17338867 818.8253125 878.74755859 819.765625 C869.4055343 840.33986127 858.25337948 859.69550736 845 878 C844.60329102 878.54833496 844.20658203 879.09666992 843.79785156 879.66162109 C836.28490379 889.98011642 828.27247906 899.81038305 819.54150391 909.1171875 C816.96894861 911.8391169 816.96894861 911.8391169 815 915 C814.34 915 813.68 915 813 915 C812.67 915.99 812.34 916.98 812 918 C811.34 918 810.68 918 810 918 C809.7525 918.61875 809.505 919.2375 809.25 919.875 C807.79371361 922.35068687 806.62187494 922.95125002 804 924 C804 924.66 804 925.32 804 926 C803.34 926 802.68 926 802 926 C802 926.66 802 927.32 802 928 C800.390625 929.65625 800.390625 929.65625 798.25 931.5 C797.20585937 932.41265625 797.20585937 932.41265625 796.140625 933.34375 C794.15539208 934.87976963 792.28127955 935.9723966 790 937 C790 937.66 790 938.32 790 939 C788.33984375 940.5234375 788.33984375 940.5234375 785.9375 942.375 C782.83290406 944.78920328 779.73537138 947.20349192 776.69921875 949.703125 C750.24475855 971.40471245 720.7599449 989.12124811 690 1004 C689.39655762 1004.29471191 688.79311523 1004.58942383 688.17138672 1004.89306641 C659.10382154 1019.04448477 627.52159918 1029.8651329 596 1037 C594.9289502 1037.24411621 593.85790039 1037.48823242 592.75439453 1037.73974609 C556.17841695 1045.9525881 519.16480146 1050.5743685 481.69677734 1051.70996094 C480.43921631 1051.74911621 480.43921631 1051.74911621 479.15625 1051.7890625 C478.44275391 1051.80662598 477.72925781 1051.82418945 476.99414062 1051.84228516 C474.90350013 1052.00763209 473.02958483 1052.487463 471 1053 C470.01 1053 469.02 1053 468 1053 C466.21093621 1053.01152062 464.42187389 1053.0232693 462.6328125 1053.03515625 C460.46354252 1053.04447213 458.29427163 1053.0535782 456.125 1053.0625 C455.03574219 1053.07087891 453.94648437 1053.07925781 452.82421875 1053.08789062 C451.77105469 1053.09111328 450.71789063 1053.09433594 449.6328125 1053.09765625 C448.67262207 1053.10289307 447.71243164 1053.10812988 446.72314453 1053.11352539 C444.03877903 1053.00161666 441.62477548 1052.54730034 439 1052 C437.48781871 1051.89310985 435.97258406 1051.82395431 434.45703125 1051.7890625 C433.5659668 1051.76287842 432.67490234 1051.73669434 431.75683594 1051.7097168 C430.78520508 1051.68176025 429.81357422 1051.65380371 428.8125 1051.625 C357.15636693 1049.02610173 282.90939154 1034.64108938 218.97802734 1001.03173828 C216.87720122 999.9359482 214.76222444 998.8713904 212.64453125 997.80859375 C192.64981922 987.66866156 173.90062764 975.46727351 156 962 C155.11030518 961.33774414 155.11030518 961.33774414 154.20263672 960.66210938 C142.09599699 951.64188338 130.76193519 941.75584696 119.71875 931.47265625 C117.79904936 929.72672161 115.88181496 928.06661281 113.875 926.4296875 C111.47994924 924.40560928 109.49925968 922.45867152 107.5 920.0625 C105.28597984 917.45399963 103.02773058 914.9974219 100.5625 912.625 C98 910 98 910 98 908 C97.34 908 96.68 908 96 908 C93.2908687 905.1262953 90.91254049 901.96821992 88.47021484 898.86621094 C87.44050684 897.55915548 86.40661958 896.25538665 85.36962891 894.95410156 C68.80413781 874.16401169 54.32714639 851.97697694 42.91503906 827.91552734 C41.98126294 825.96077615 41.02022911 824.02126452 40.0546875 822.08203125 C16.31677812 773.82428529 5.2503055 719.31562845 1 666 C0.91678436 665.00197987 0.83356873 664.00395973 0.7478314 662.97569656 C-0.21871732 649.78946117 -0.13621808 636.61477162 -0.12025452 623.39941406 C-0.12069107 620.70448383 -0.12152555 618.00955637 -0.12284368 615.31462669 C-0.12490584 609.47597885 -0.12329359 603.63734126 -0.11920547 597.79869461 C-0.1131437 589.11698669 -0.11287214 580.43528517 -0.11374746 571.75357552 C-0.1150582 557.14603814 -0.111732 542.5385053 -0.10573006 527.93096924 C-0.09980574 513.47519915 -0.09596264 499.01943096 -0.09487724 484.56365967 C-0.0948085 483.6636341 -0.09473976 482.76360852 -0.09466894 481.83630945 C-0.09433059 477.26522359 -0.09402921 472.69413774 -0.09374207 468.12305188 C-0.09164366 435.77636924 -0.08491192 403.42968907 -0.07543945 371.08300781 C-0.06624978 339.66569024 -0.05916874 308.24837334 -0.05493164 276.83105469 C-0.05480011 275.86202276 -0.05466859 274.89299084 -0.05453308 273.89459431 C-0.05321452 264.16285828 -0.05193871 254.43112225 -0.05069422 244.69938621 C-0.04815825 224.87608817 -0.045337 205.05279017 -0.04234314 185.22949219 C-0.04220585 184.31812103 -0.04206856 183.40674987 -0.04192711 182.4677614 C-0.03770543 154.54263491 -0.03227499 126.61750884 -0.02565002 98.69238281 C-0.02546247 97.89981691 -0.02527491 97.107251 -0.02508167 96.29066795 C-0.01746771 64.19377844 -0.00857289 32.09688926 0 0 Z " fill="#FEFEFE" transform="translate(1460,939)"/>
<path d="M0 0 C2.34228516 1.14477539 2.34228516 1.14477539 4.7890625 2.59765625 C5.71614014 3.14333252 6.64321777 3.68900879 7.59838867 4.2512207 C8.59717041 4.84894287 9.59595215 5.44666504 10.625 6.0625 C12.20921753 6.99872192 12.20921753 6.99872192 13.82543945 7.95385742 C17.22100863 9.96249345 20.61061209 11.98095462 24 14 C26.18840158 15.29755071 28.37720026 16.59443194 30.56640625 17.890625 C33.90493045 19.86756181 37.24289646 21.8454005 40.57885742 23.82666016 C46.43218611 27.30198311 52.29294305 30.76345952 58.171875 34.1953125 C58.76968781 34.54436142 59.36750061 34.89341034 59.98342896 35.2530365 C60.58267181 35.60290115 61.18191467 35.95276581 61.79931641 36.31323242 C63.01206347 37.02128872 64.22479134 37.72937792 65.4375 38.4375 C66.03600769 38.78696686 66.63451538 39.13643372 67.25115967 39.49649048 C77.10454205 45.2548853 86.86935613 51.14961129 96.60940552 57.09725952 C103.7422687 61.45020431 110.90164914 65.72353331 118.21484375 69.76733398 C127.59876864 74.96536516 136.77874495 80.52063939 146 86 C150.353495 88.58446646 154.70778996 91.1675814 159.0625 93.75 C160.18084229 94.41338379 161.29918457 95.07676758 162.45141602 95.76025391 C171.66190711 101.22036294 180.89847898 106.63540999 190.13967896 112.04333496 C197.73465168 116.48862745 205.30534676 120.96848997 212.83984375 125.515625 C218.8851081 129.14246933 224.97864809 132.68842097 231.0625 136.25 C245.51398663 144.71070107 259.93868474 153.21557093 274.33984375 161.76171875 C276.58067505 163.09123704 278.82156145 164.42066248 281.0625 165.75 C282.18188965 166.41402832 283.3012793 167.07805664 284.45458984 167.76220703 C293.66481119 173.22035808 302.89953828 178.63602989 312.13967896 184.04333496 C319.73465168 188.48862745 327.30534676 192.96848997 334.83984375 197.515625 C340.8851081 201.14246933 346.97864809 204.68842097 353.0625 208.25 C367.51398663 216.71070107 381.93868474 225.21557093 396.33984375 233.76171875 C409.59765342 241.62780543 422.873629 249.46079695 436.18188477 257.24121094 C437.8881604 258.23942871 437.8881604 258.23942871 439.62890625 259.2578125 C440.61963135 259.8367627 441.61035645 260.41571289 442.63110352 261.01220703 C443.74283936 261.66817871 444.8545752 262.32415039 446 263 C446.81649155 263.36901416 447.6329831 263.73802833 448.47421682 264.11822474 C455.43154969 267.55752142 455.43154969 267.55752142 456.92102265 271.3371532 C457.2649763 274.28152798 457.28548178 277.08408166 457.20254517 280.04769897 C457.21108941 281.16355177 457.21963366 282.27940456 457.22843683 283.42907107 C457.24491958 287.17097822 457.18990657 290.90840814 457.13525391 294.64990234 C457.13243326 297.33065902 457.13357558 300.01114092 457.13967896 302.69186401 C457.14491882 308.46427188 457.11358729 314.23554816 457.05730057 320.00767136 C456.9759748 328.35295214 456.94998101 336.69768663 456.93742065 345.04332073 C456.91554254 358.58371532 456.84901667 372.12350696 456.75439453 385.66357422 C456.66258234 398.81523627 456.59180931 411.96673446 456.54931641 425.11865234 C456.54668917 425.9295388 456.54406194 426.74042526 456.54135509 427.57588403 C456.52830457 431.64392657 456.51566752 435.71197028 456.50323606 439.78001475 C456.39959442 473.52044708 456.22348648 507.2601496 456 541 C454.23831972 540.04151573 452.47693186 539.08249398 450.71566772 538.12324524 C449.73476355 537.58924764 448.75385937 537.05525003 447.74323082 536.50507069 C444.6659145 534.81670434 441.62645421 533.07348104 438.6015625 531.29296875 C437.4770166 530.63232422 436.3524707 529.97167969 435.19384766 529.29101562 C434.00421234 528.58987671 432.81459696 527.88870398 431.625 527.1875 C430.36387139 526.44579033 429.10263868 525.70425762 427.84130859 524.96289062 C425.88119691 523.81071591 423.92118722 522.65837034 421.96157837 521.50534058 C417.3738085 518.80600103 412.78194327 516.11374478 408.1875 513.42578125 C397.47754853 507.1589789 386.77152033 500.89003209 376.1484375 494.4765625 C370.17161144 490.89046686 364.14200278 487.39308862 358.125 483.875 C348.77829289 478.40997071 339.46165282 472.90018808 330.1875 467.3125 C319.27068328 460.73793203 308.27751315 454.30235504 297.26025391 447.89794922 C291.14628361 444.33871565 285.04126381 440.76420172 278.9375 437.1875 C278.30831665 436.81884827 277.6791333 436.45019653 277.03088379 436.07037354 C269.3759242 431.58370978 261.74447636 427.06251603 254.1484375 422.4765625 C248.17161144 418.89046686 242.14200278 415.39308862 236.125 411.875 C226.77829289 406.40997071 217.46165282 400.90018808 208.1875 395.3125 C197.27068328 388.73793203 186.27751315 382.30235504 175.26025391 375.89794922 C169.14628361 372.33871565 163.04126381 368.76420172 156.9375 365.1875 C156.30831665 364.81884827 155.6791333 364.45019653 155.03088379 364.07037354 C147.3759242 359.58370978 139.74447636 355.06251603 132.1484375 350.4765625 C126.17161144 346.89046686 120.14200278 343.39308862 114.125 339.875 C104.77829289 334.40997071 95.46165282 328.90018808 86.1875 323.3125 C75.27068328 316.73793203 64.27751315 310.30235504 53.26025391 303.89794922 C39.5355091 295.90812099 25.80886583 287.91497371 12.1875 279.75 C11.08019531 279.08742188 9.97289062 278.42484375 8.83203125 277.7421875 C6.29670544 276.182525 3.83986021 274.5422729 1.375 272.875 C-1.67458778 270.80273673 -1.67458778 270.80273673 -4.1796875 271.0703125 C-8.33417758 272.43979815 -11.79940182 274.69494745 -15.5 277 C-17.30105866 278.10193695 -19.10320827 279.2020921 -20.90625 280.30078125 C-21.88335938 280.89713379 -22.86046875 281.49348633 -23.8671875 282.10791016 C-28.9337915 285.1679305 -34.05144365 288.13993777 -39.16592407 291.11889648 C-49.78232973 297.3044247 -60.32676229 303.59553319 -70.8125 310 C-78.42256857 314.64709238 -86.04361098 319.24229987 -93.85229492 323.54980469 C-100.35319187 327.15260876 -106.73596608 330.95340195 -113.125 334.75 C-113.71018402 335.09766418 -114.29536804 335.44532837 -114.89828491 335.80352783 C-117.83052383 337.54599622 -120.76210029 339.28957533 -123.69335938 341.03369141 C-128.41629653 343.84220705 -133.14458023 346.6416101 -137.875 349.4375 C-138.74898437 349.95441406 -139.62296875 350.47132813 -140.5234375 351.00390625 C-145.61674114 354.01291848 -150.71868287 357.0067658 -155.828125 359.98828125 C-158.26066058 361.40843686 -160.69293978 362.82903048 -163.125 364.25 C-163.73264191 364.60496552 -164.34028381 364.95993103 -164.96633911 365.32565308 C-174.91575527 371.1427996 -184.77881317 377.09274745 -194.61407471 383.10046387 C-201.59383529 387.36154939 -208.59934012 391.5361596 -215.76879883 395.47070312 C-222.63323418 399.27715577 -229.30350553 403.40841371 -236 407.5 C-243.99986088 412.38690054 -252.00602856 417.2289908 -260.21166992 421.76538086 C-269.59628441 426.96478094 -278.77764708 432.51998703 -288 438 C-292.35349501 440.58446647 -296.70783025 443.16751347 -301.0625 445.75 C-302.19026855 446.41918457 -303.31803711 447.08836914 -304.47998047 447.77783203 C-310.36921831 451.27001717 -316.26680457 454.74720329 -322.1796875 458.19921875 C-322.77700684 458.54802094 -323.37432617 458.89682312 -323.98974609 459.25619507 C-324.58835449 459.60574249 -325.18696289 459.95528992 -325.80371094 460.31542969 C-327.0149887 461.02276121 -328.22625172 461.73011799 -329.4375 462.4375 C-330.03582642 462.78687622 -330.63415283 463.13625244 -331.25061035 463.49621582 C-341.10625083 469.25590229 -350.87398077 475.15094461 -360.615448 481.10128784 C-367.59475019 485.36209981 -374.59980808 489.53641641 -381.76879883 493.47070312 C-388.63323418 497.27715577 -395.30350553 501.40841371 -402 505.5 C-409.9850346 510.37784356 -417.97314383 515.21821199 -426.16772461 519.73901367 C-432.98816839 523.5118889 -439.6777709 527.50470012 -446.37841797 531.48535156 C-448.91711475 532.99335129 -451.45817717 534.49727727 -454 536 C-454.70495605 536.42071777 -455.40991211 536.84143555 -456.13623047 537.27490234 C-460.77140975 540 -460.77140975 540 -463 540 C-463.66488684 505.76676779 -464.17532 471.53501755 -464.48089455 437.29671535 C-464.51716175 433.24784852 -464.55469741 429.19899438 -464.59301758 425.15014648 C-464.60062458 424.34414916 -464.60823158 423.53815183 -464.6160691 422.70773035 C-464.7420077 409.68394605 -464.97049734 396.66390241 -465.23743109 383.64233197 C-465.50936959 370.26426716 -465.66985214 356.88815002 -465.72856635 343.50743526 C-465.76467815 335.99657886 -465.85165634 328.4935648 -466.06617165 320.98550606 C-467.37370912 273.88541054 -467.37370912 273.88541054 -460.15454865 264.85905075 C-453.82697587 258.47208468 -445.87149908 255.42100502 -437.37331581 253.02165794 C-432.87577174 251.65951106 -429.24248505 249.51116229 -425.3515625 246.9375 C-423.64516602 245.93879883 -423.64516602 245.93879883 -421.90429688 244.91992188 C-412.6191983 239.48379805 -403.34690425 234.03123137 -394.13671875 228.46875 C-388.85139829 225.29728338 -383.517974 222.2072872 -378.19515991 219.09936523 C-377.57388214 218.73657471 -376.95260437 218.37378418 -376.3125 218 C-375.38215439 217.45678101 -375.38215439 217.45678101 -374.43301392 216.90258789 C-364.95745634 211.36541945 -355.55321782 205.72074281 -346.1875 200 C-338.45745672 195.27935084 -330.71263277 190.61613134 -322.78515625 186.23266602 C-313.40123136 181.03463484 -304.22125505 175.47936061 -295 170 C-290.64650499 167.41553353 -286.29216975 164.83248653 -281.9375 162.25 C-280.80973145 161.58081543 -279.68196289 160.91163086 -278.52001953 160.22216797 C-272.63078169 156.72998283 -266.73319543 153.25279671 -260.8203125 149.80078125 C-259.9243335 149.27757797 -259.9243335 149.27757797 -259.01025391 148.74380493 C-258.41164551 148.39425751 -257.81303711 148.04471008 -257.19628906 147.68457031 C-255.9850113 146.97723879 -254.77374828 146.26988201 -253.5625 145.5625 C-252.96417358 145.21312378 -252.36584717 144.86374756 -251.74938965 144.50378418 C-242.501908 139.09950883 -233.32872729 133.58186597 -224.1875 128 C-216.57728521 123.35313681 -208.95639937 118.75770584 -201.14770508 114.45019531 C-194.64680813 110.84739124 -188.26403392 107.04659805 -181.875 103.25 C-181.28981598 102.90233582 -180.70463196 102.55467163 -180.10171509 102.19647217 C-177.16947617 100.45400378 -174.23789971 98.71042467 -171.30664062 96.96630859 C-166.58370347 94.15779295 -161.85541977 91.3583899 -157.125 88.5625 C-156.25101563 88.04558594 -155.37703125 87.52867187 -154.4765625 86.99609375 C-149.38325886 83.98708152 -144.28131713 80.9932342 -139.171875 78.01171875 C-136.73933942 76.59156314 -134.30706022 75.17096952 -131.875 73.75 C-131.26735809 73.39503448 -130.65971619 73.04006897 -130.03366089 72.67434692 C-120.08424473 66.8572004 -110.22118683 60.90725255 -100.38592529 54.89953613 C-93.40616471 50.63845061 -86.40065988 46.4638404 -79.23120117 42.52929688 C-72.36676582 38.72284423 -65.69649447 34.59158629 -59 30.5 C-51.01867652 25.62442346 -43.03510171 20.78442714 -34.84326172 16.26757812 C-27.86908381 12.41120166 -21.03236049 8.32224411 -14.18212891 4.25097656 C-12.82740479 3.44611816 -12.82740479 3.44611816 -11.4453125 2.625 C-10.63594238 2.14289063 -9.82657227 1.66078125 -8.99267578 1.1640625 C-5.39176065 -0.93948606 -4.07929329 -1.10566202 0 0 Z " fill="#FFFFFF" transform="translate(1923,170)"/>
</svg>
